<svg width="27" height="27" viewBox="0 0 27 27" fill="none" xmlns="http://www.w3.org/2000/svg">
<path d="M22.0735 12.2587H24.2809C24.2809 6.59679 20.0063 2.32666 14.3367 2.32666V4.53402C18.8199 4.53402 22.0735 7.78214 22.0735 12.2587Z" fill="white"/>
<path d="M14.3479 8.94913C16.6689 8.94913 17.6589 9.93913 17.6589 12.2602H19.8663C19.8663 8.7008 17.9073 6.74177 14.3479 6.74177V8.94913ZM18.1247 14.9565C17.9126 14.7637 17.6339 14.6609 17.3475 14.6698C17.061 14.6786 16.7892 14.7984 16.5895 15.0039L13.9484 17.7201C13.3126 17.5987 12.0346 17.2002 10.719 15.888C9.40341 14.5713 9.00498 13.2899 8.88689 12.6586L11.6008 10.0164C11.8066 9.81676 11.9266 9.54492 11.9354 9.25839C11.9443 8.97186 11.8413 8.69312 11.6483 8.48117L7.5702 3.99692C7.3771 3.7843 7.10873 3.65534 6.82207 3.63741C6.53542 3.61948 6.25307 3.714 6.03498 3.9009L3.64 5.95485C3.44918 6.14635 3.33529 6.40123 3.31993 6.67113C3.30338 6.94705 2.98772 13.483 8.05582 18.5533C12.4772 22.9736 18.0154 23.297 19.5407 23.297C19.7636 23.297 19.9005 23.2903 19.9369 23.2881C20.2068 23.273 20.4615 23.1586 20.6521 22.967L22.705 20.5709C22.892 20.3529 22.9867 20.0707 22.969 19.784C22.9513 19.4974 22.8225 19.2289 22.61 19.0357L18.1247 14.9565Z" fill="white"/>
</svg>
