<svg width="19" height="24" viewBox="0 0 19 24" fill="none" xmlns="http://www.w3.org/2000/svg">
<path d="M9.24415 0.262695C6.83014 0.265543 4.51581 1.22577 2.80884 2.93274C1.10188 4.6397 0.141652 6.95403 0.138804 9.36805C0.135912 11.3408 0.780301 13.26 1.97312 14.8313C1.97312 14.8313 2.22145 15.1582 2.26201 15.2054L9.24415 23.44L16.2296 15.2013C16.266 15.1574 16.5152 14.8313 16.5152 14.8313L16.516 14.8288C17.7082 13.2582 18.3523 11.3399 18.3495 9.36805C18.3467 6.95403 17.3864 4.6397 15.6795 2.93274C13.9725 1.22577 11.6582 0.265543 9.24415 0.262695ZM9.24415 12.6791C8.58929 12.6791 7.94914 12.4849 7.40464 12.1211C6.86014 11.7573 6.43576 11.2401 6.18516 10.6351C5.93455 10.0301 5.86898 9.36437 5.99674 8.7221C6.1245 8.07982 6.43984 7.48985 6.9029 7.02679C7.36595 6.56373 7.95592 6.24839 8.5982 6.12063C9.24048 5.99287 9.90622 6.05844 10.5112 6.30905C11.1162 6.55965 11.6334 6.98404 11.9972 7.52853C12.361 8.07303 12.5552 8.71319 12.5552 9.36805C12.5541 10.2459 12.2049 11.0874 11.5842 11.7081C10.9635 12.3288 10.122 12.678 9.24415 12.6791Z" fill="white"/>
</svg>
